<svg xmlns="http://www.w3.org/2000/svg" width="503.5" height="503.5"><g transform="translate(-105.85 -334.902)"><rect width="502.1" height="502.1" x="106.6" y="335.6" ry="251" fill-rule="evenodd" stroke="#000" stroke-width="1.414"/><path d="M230.23 668.603l-20.15 20.152L326.114 804.79l20.152-20.15L230.23 668.602z" fill="#80b3ff" fill-rule="evenodd"/><path d="M156.41 555.89l-20.153 20.152L252.293 692.08l20.152-20.154L156.41 555.89z" fill="#2a7fff" fill-rule="evenodd"/><path d="M275.627 459.3l-20.152-20.154L139.44 555.183l20.15 20.152L275.628 459.3z" fill="#0055d4" fill-rule="evenodd"/><path d="M388.34 385.477l-20.152-20.152L252.15 481.36l20.154 20.153L388.34 385.477z" fill="#003380" fill-rule="evenodd"/><path d="M462.94 692.008l-20.153-20.153L326.75 787.892l20.154 20.152L462.94 692.008z" fill="#80ff80" fill-rule="evenodd"/><path d="M575.723 618.257l-20.152-20.153L439.536 714.14l20.152 20.153 116.036-116.036z" fill="#2aff2a" fill-rule="evenodd"/><path d="M462.94 481.29l-20.153 20.153L558.824 617.48l20.152-20.154L462.94 481.29z" fill="#00d400"/><path d="M377.617 356.16l-20.152 20.15 116.067 116.067 20.152-20.152L377.617 356.16z" fill="green" fill-rule="evenodd"/><path d="M357.58 335.626L106.488 586.72 357.58 837.813 608.676 586.72 357.58 335.626zm42.993 44.83L473.76 492.25l94.468 94.47-19.728 19.728 15.273 23.334-111.793 73.186-94.4 94.4-19.727-19.73-23.335 15.274-73.185-111.794-94.47-94.47 19.728-19.727-15.272-23.334L263.04 470.47l94.54-94.54 19.73 19.73 23.334-15.274zM377.24 395.73l-114.27 74.812-96.45 96.45 74.742 114.197 96.52 96.52 114.127-74.67 96.52-96.52-74.742-114.2-96.52-96.52z" fill-rule="evenodd"/></g></svg>